<svg width="512" height="512" viewBox="0 0 512 512" fill="none" xmlns="http://www.w3.org/2000/svg">
<path d="M512 256.043C512 397.443 397.443 512 256.043 512C114.644 512 0 397.356 0 256.043C0 114.644 114.644 0.0865358 255.957 0.0865358C397.356 -5.30391e-05 512 114.644 512 256.043Z" fill="white"/>
<path d="M256.043 8.74548C187.898 8.74548 126.16 36.5405 81.307 81.307C36.5405 126.073 8.74548 187.898 8.74548 256.043C8.74548 324.102 36.5405 385.927 81.307 430.78C126.16 475.546 187.898 503.341 255.957 503.341H256.043C324.102 503.341 385.927 475.633 430.693 430.78C475.459 386.013 503.255 324.189 503.255 256.043V255.957C503.255 187.898 475.459 126.073 430.693 81.307C385.927 36.4539 324.102 8.74548 256.043 8.74548ZM255.957 0C326.44 0 390.429 28.7475 436.841 75.0726C483.252 121.484 511.913 185.473 511.913 255.87V255.957C511.913 326.44 483.166 390.429 436.754 436.841C390.429 483.252 326.44 511.913 255.957 511.913H255.87C185.387 511.913 121.398 483.166 75.0725 436.841C28.7475 390.516 0 326.527 0 256.043C0 185.56 28.7475 121.571 75.1591 75.1591C121.484 28.7475 185.473 0 255.957 0Z" fill="#085CA7"/>
<path fill-rule="evenodd" clip-rule="evenodd" d="M255.957 82.2594C349.473 82.2594 425.671 158.458 425.671 251.974C425.671 345.403 349.473 421.688 255.957 421.688C162.527 421.688 86.2427 345.403 86.2427 251.974C86.3293 158.458 162.527 82.2594 255.957 82.2594Z" fill="#085CA7"/>
<path fill-rule="evenodd" clip-rule="evenodd" d="M438.919 229.72L469.052 227.123L469.571 233.097L450.522 247.211L470.61 245.393L471.043 251.108L440.91 253.705L440.391 247.644L459.007 233.79L439.352 235.435L438.919 229.72ZM465.588 197.509L472.515 200.28L473.814 205.475L468.879 211.104L467.753 206.601L470.177 203.57L466.627 202.185L465.588 197.509ZM448.184 213.009L458.055 206.255L446.192 205.042L448.184 213.009ZM439.265 226.863L437.62 220.369L443.681 216.212L440.737 204.436L433.464 203.657L431.905 197.423L464.203 201.492L465.675 207.727L439.265 226.863ZM447.751 168.502L429.134 176.035L430.866 180.278L431.819 182.27C431.905 182.616 432.078 182.789 432.165 182.962C432.338 183.135 432.425 183.309 432.598 183.568C433.204 184.434 433.897 184.954 434.676 185.387C435.455 185.733 436.581 185.906 437.966 185.82C439.438 185.647 441.257 185.214 443.335 184.348C445.5 183.482 447.058 182.616 448.097 181.837C449.05 180.971 449.829 180.105 450.175 179.066C450.522 178.113 450.695 176.988 450.435 175.862C450.262 174.996 449.742 173.351 448.877 171.1L447.751 168.502ZM450.175 160.969L454.418 171.359C455.371 173.697 455.977 175.602 456.063 176.901C456.237 178.719 455.977 180.365 455.198 182.183C454.418 183.742 453.379 185.3 451.734 186.686C450.175 188.071 448.097 189.283 445.5 190.322C443.248 191.275 441.084 191.708 439.179 191.881C436.927 191.968 434.849 191.621 433.031 190.842C431.645 190.236 430.433 189.197 429.134 187.811C428.961 187.465 428.701 187.205 428.528 186.945C428.268 186.686 428.095 186.253 427.835 185.82C427.576 185.473 427.403 185.04 427.229 184.521C427.056 184.088 426.796 183.568 426.537 182.962L422.207 172.312L450.175 160.969ZM420.649 146.335L422.64 152.223C419.436 153.435 416.579 153.695 413.981 152.916C411.47 152.137 409.219 150.405 407.314 147.807C404.976 144.603 404.197 141.053 404.803 137.33C405.496 133.607 407.747 130.316 411.643 127.632C415.713 124.688 419.61 123.389 423.419 123.909C427.143 124.342 430.347 126.333 432.858 129.71C434.936 132.654 435.802 135.771 435.455 138.975C435.196 140.88 434.33 142.785 432.771 144.777L428.009 140.707C429.134 139.495 429.74 138.196 429.827 136.724C429.827 135.252 429.394 133.866 428.442 132.568C427.143 130.749 425.411 129.797 423.246 129.624C421.082 129.364 418.57 130.403 415.713 132.481C412.596 134.732 410.777 136.897 410.258 138.975C409.825 141.053 410.171 142.958 411.557 144.777C412.509 146.075 413.721 146.941 415.193 147.288C416.752 147.461 418.57 147.288 420.649 146.335ZM422.38 104.599L419.869 101.915L427.316 100.703L431.819 105.379L422.38 104.599ZM406.361 95.0746L413.721 94.0355L417.445 97.8454L416.059 105.119L412.856 101.742L413.375 97.8454L409.565 98.365L406.361 95.0746ZM392.421 106.851C389.91 109.275 388.611 111.613 388.524 113.951C388.264 116.289 389.044 118.367 390.775 120.185C392.507 121.831 394.499 122.696 396.837 122.61C397.962 122.61 399.175 122.263 400.473 121.571C401.772 120.878 402.984 120.012 404.283 118.887C406.708 116.549 408.007 114.211 408.266 111.873C408.44 109.535 407.66 107.543 405.928 105.638C404.197 103.907 402.119 103.041 399.781 103.127C397.27 103.214 394.932 104.426 392.421 106.851ZM387.918 102.435C390.169 100.27 392.334 98.7979 394.499 98.0186C396.057 97.4125 397.703 97.1527 399.434 97.1527C401.079 97.1527 402.725 97.4125 404.11 98.1052C406.102 98.9711 407.92 100.27 409.479 102.002C412.596 105.205 413.981 108.669 413.895 112.566C413.808 116.462 411.99 120.099 408.44 123.476C404.889 126.939 401.253 128.584 397.443 128.584C393.633 128.584 390.169 127.026 387.052 123.822C384.021 120.618 382.463 117.068 382.636 113.172C382.723 109.362 384.541 105.725 387.918 102.435ZM371.293 71.0895L376.315 74.553L366.877 87.9743C365.318 90.2256 364.366 91.611 364.193 92.3037C363.673 93.4294 363.587 94.555 364.019 95.7673C364.366 96.9795 365.232 98.1052 366.617 99.0577C368.003 100.097 369.301 100.443 370.34 100.443C371.466 100.357 372.419 99.9236 373.198 99.1443C373.977 98.365 375.016 97.0661 376.315 95.1612L385.926 81.3935L390.949 84.9437L381.857 98.0186C379.779 100.963 378.22 102.954 377.094 103.993C375.969 105.032 374.756 105.725 373.371 106.071C372.072 106.418 370.6 106.418 368.955 106.071C367.396 105.725 365.665 104.859 363.673 103.474C361.335 101.829 359.777 100.27 358.824 98.8845C357.958 97.4125 357.525 96.1136 357.439 94.8148C357.352 93.4294 357.525 92.1306 357.958 91.0049C358.651 89.2731 359.95 87.1084 361.855 84.3376L371.293 71.0895ZM346.269 83.0387C347.394 82.6058 348.347 81.9131 349.299 80.874C350.252 79.8349 351.204 78.6227 351.897 77.1507C353.456 74.0335 353.975 71.3492 353.369 69.0979C352.763 66.8466 351.377 65.1148 349.126 63.9892C346.875 62.8635 344.71 62.7769 342.545 63.6428C340.381 64.4221 338.476 66.4137 336.917 69.5309C335.272 72.6481 334.839 75.4189 335.359 77.6702C335.965 79.9215 337.35 81.5667 339.428 82.6924C340.208 83.0387 340.987 83.2985 341.853 83.4717C341.16 82.346 340.381 81.1338 339.342 80.0081L342.459 77.6702C344.017 79.2288 345.316 80.9606 346.269 83.0387ZM349.126 88.4072C349.905 89.9658 351.031 91.4378 352.33 92.9099L348.433 95.6807C347.654 95.0746 347.048 94.2953 346.529 93.4294L344.104 89.1865C342.026 89.0999 339.775 88.4072 337.696 87.3682C333.627 85.29 330.943 82.4326 329.817 78.7959C328.691 75.1591 329.297 71.0895 331.549 66.6734C333.8 62.2574 336.744 59.4866 340.294 58.1877C343.931 56.9755 347.741 57.3218 351.724 59.4C355.707 61.3915 358.305 64.3355 359.43 67.8857C360.469 71.5224 359.863 75.5055 357.612 79.9215C357.006 81.1338 356.4 82.1728 355.707 83.1253C355.014 84.0778 354.322 84.8571 353.542 85.6364C352.936 86.1559 352.243 86.6755 351.551 87.1084C350.771 87.6279 349.992 88.0609 349.126 88.4072ZM318.733 39.2248L315.183 38.3589L320.725 33.2501L327.046 34.7221L318.733 39.2248ZM299.684 39.5711L305.312 34.6355L310.508 35.8478L313.365 42.6883L308.776 41.6492L307.131 38.0991L304.187 40.6102L299.684 39.5711ZM287.994 70.3102L294.835 40.7834L316.742 45.8055L315.616 50.8277L299.684 47.1909L298.212 53.7717L313.019 57.1486L311.806 62.1708L297 58.7938L295.095 66.8466L311.633 70.6565L310.508 75.6787L287.994 70.3102ZM269.551 68.232L271.283 43.1213L262.278 42.5151L262.624 37.4064L286.609 39.1382L286.263 44.2469L277.344 43.6408L275.526 68.7516L269.551 68.232ZM222.1 70.4833L218.377 40.437L224.438 39.6577L225.824 51.5204L237.773 50.0484L236.301 38.1857L242.362 37.493L246.085 67.5393L240.024 68.3186L238.379 55.1571L226.516 56.6291L228.162 69.7906L222.1 70.4833ZM192.92 78.1032L185.04 48.8361L190.842 47.2775L207.986 63.6428L202.791 44.0737L208.246 42.6017L216.039 71.8688L210.151 73.4274L193.18 57.5816L198.288 76.6311L192.92 78.1032ZM182.702 82.9521L171.792 54.6376L177.507 52.4728L188.331 80.7874L182.702 82.9521ZM156.206 96.8063L141.486 70.3102L146.855 67.3661L153.349 79.1422L157.678 61.3915L164.865 57.4084L160.622 73.2542L180.105 83.5583L173.178 87.3682L158.977 78.969L157.159 85.8096L161.575 93.7757L156.206 96.8063ZM131.615 101.655L137.416 99.3174C138.802 102.435 139.235 105.292 138.629 107.89C138.109 110.487 136.55 112.825 134.039 114.903C130.922 117.501 127.632 118.54 123.822 118.107C120.012 117.674 116.635 115.683 113.604 111.959C110.401 108.149 108.842 104.253 109.015 100.443C109.275 96.6332 110.92 93.3428 114.211 90.6585C117.068 88.2341 120.012 87.195 123.216 87.3682C125.121 87.4548 127.112 88.2341 129.19 89.6195L125.554 94.555C124.255 93.6026 122.869 93.083 121.484 93.083C120.012 93.1696 118.54 93.6892 117.328 94.7282C115.683 96.2002 114.817 97.932 114.73 100.097C114.73 102.261 115.856 104.686 118.194 107.457C120.618 110.401 122.956 112.046 125.034 112.392C127.112 112.739 129.017 112.306 130.749 110.834C131.961 109.795 132.741 108.496 132.914 106.937C133.087 105.552 132.654 103.733 131.615 101.655ZM116.981 145.036L112.479 141.313L116.116 136.81L120.618 140.534L116.981 145.036ZM94.9012 134.126C97.5855 136.291 100.097 137.33 102.434 137.157C104.772 137.07 106.764 136.031 108.323 134.126C109.795 132.221 110.401 130.143 110.054 127.805C109.881 126.766 109.362 125.64 108.582 124.428C107.716 123.216 106.764 122.09 105.378 121.051C102.781 118.887 100.356 117.934 98.0184 118.021C95.6805 118.107 93.7756 119.146 92.217 121.051C90.6584 122.956 90.0523 125.121 90.3986 127.372C90.6584 129.71 92.217 131.961 94.9012 134.126ZM91.0913 139.148C88.6668 137.243 87.0217 135.252 85.9826 133.174C85.2033 131.702 84.6838 130.143 84.5106 128.411C84.2508 126.766 84.3374 125.121 84.8569 123.649C85.5496 121.571 86.5887 119.666 88.0607 117.847C90.8316 114.384 94.2085 112.566 98.0184 112.133C101.828 111.786 105.725 113.172 109.535 116.202C113.345 119.319 115.423 122.783 115.942 126.506C116.375 130.316 115.25 133.953 112.479 137.417C109.708 140.967 106.331 142.785 102.434 143.131C98.538 143.478 94.8147 142.179 91.0913 139.148ZM88.7534 173.957L62.6036 158.804L65.6342 153.609L75.9383 159.583L81.9129 149.279L71.6088 143.305L74.6394 138.023L100.876 153.176L97.8453 158.458L86.3289 151.877L80.3543 162.268L91.8706 168.848L88.7534 173.957ZM81.047 195.085L52.4727 185.214L54.4642 179.499L83.0386 189.283L81.047 195.085ZM84.2508 216.819L78.6225 215.433L80.008 209.805L85.6362 211.19L84.2508 216.819ZM65.6342 205.562L53.6849 206.861L63.6427 213.528L65.6342 205.562ZM79.9214 197.509L78.2762 204.003L71.0027 204.869L68.0587 216.645L74.1199 220.715L72.5613 227.036L45.9785 208.246L47.5371 202.012L79.9214 197.509ZM46.7578 245.653L54.8106 246.345L55.4167 239.938L59.2266 240.284L58.7071 246.692L66.8464 247.471L67.1928 242.882C67.366 240.977 67.366 239.505 67.1062 238.466C66.8465 237.34 66.1537 236.388 65.0281 235.608C63.5561 234.569 61.2182 233.963 58.101 233.703C55.7631 233.53 53.9447 233.53 52.8191 233.703C51.6068 233.963 50.5677 234.396 49.7884 235.089C49.0091 235.695 48.403 236.561 47.8835 237.773L47.6237 238.639C47.5371 238.899 47.5371 239.245 47.5371 239.678L47.1042 242.968L46.7578 245.653ZM41.043 251.367L41.9954 240.198C42.1686 238.639 42.2552 237.6 42.4284 236.821V236.301C42.4284 236.128 42.515 235.868 42.6882 235.522L42.7747 235.089C42.8613 234.916 42.9479 234.656 43.0345 234.396C43.7272 232.751 44.7663 231.365 46.2383 230.153C47.6237 229.028 49.3555 228.248 51.4336 227.729C53.5118 227.209 55.8497 227.123 58.6205 227.382C61.045 227.642 63.2963 228.162 65.2013 229.028C67.1062 229.893 68.6648 231.106 69.9637 232.578C70.743 233.617 71.3491 235.089 71.9552 237.08L72.1284 238.119L72.215 239.418V240.89L72.1284 242.535L71.0893 253.965L58.101 252.753L57.7546 255.87L53.9447 255.524L54.2911 252.407L41.043 251.367Z" fill="#085CA7"/>
<path fill-rule="evenodd" clip-rule="evenodd" d="M130.836 220.628L126.68 206.601C177.507 195.518 221.321 200.193 256.909 223.572C292.757 201.492 334.32 190.149 388.351 204.696L384.974 218.637C384.888 218.55 384.801 218.464 384.801 218.464C341.507 200.28 298.732 207.64 256.563 229.028C211.71 206.688 169.455 202.272 130.836 220.628ZM126.68 242.535L122.523 226.949C172.052 210.151 216.819 213.268 256.909 236.388C296.567 212.662 342.026 207.121 395.971 228.075L392.594 241.323C392.508 241.323 392.421 241.15 392.334 241.15C349.819 215.173 304.62 217.078 256.563 241.843C212.143 220.542 168.502 214.827 126.68 242.535ZM354.755 389.823C345.75 396.144 336.311 401.772 326.18 406.362C282.54 362.548 231.712 361.595 188.677 407.66C181.317 404.37 174.217 400.733 167.376 396.49L128.931 251.021C129.104 251.108 129.191 251.368 129.364 251.454C160.276 228.854 207.207 226.084 256.13 247.384C298.559 229.461 343.498 219.936 390.862 248.164L354.755 389.823Z" fill="white"/>
<path d="M121.571 354.668C121.484 354.755 121.398 354.928 121.571 354.668L121.657 354.581C132.741 346.096 143.997 338.736 155.6 332.328C167.117 325.92 179.066 320.552 191.275 316.309C211.277 309.295 231.972 305.226 253.186 304.446V255.264H86.8486V248.683H253.272V198.981C234.483 198.808 215.606 196.124 196.73 190.842C183.828 187.292 170.926 182.529 158.025 176.555C145.296 170.667 132.394 163.48 119.579 155.167C117.588 153.868 118.8 154.648 117.934 154.128L121.571 148.673C123.476 149.972 122.263 149.193 123.129 149.712C135.685 157.938 148.24 164.865 160.796 170.667C173.351 176.468 185.906 181.144 198.462 184.521C216.732 189.63 234.916 192.227 253.186 192.4V82.2594H259.767V192.4C303.407 191.448 347.048 176.555 390.689 147.894L394.239 153.349C349.559 182.702 304.62 198.029 259.767 198.895V248.683H426.19V255.264H259.767V304.273C303.234 303.84 349.473 316.742 397.962 344.883L394.672 350.512C347.221 322.89 302.109 310.334 259.767 310.767V421.688H253.186V310.941C232.664 311.807 212.749 315.703 193.44 322.457C181.663 326.613 170.147 331.809 158.717 338.043C147.461 344.277 136.377 351.551 125.64 359.69C125.294 359.95 125.727 359.604 125.467 359.777L121.571 354.668Z" fill="white"/>
<path fill-rule="evenodd" clip-rule="evenodd" d="M342.979 397.53C341.42 398.482 339.775 399.434 338.216 400.387C334.753 396.664 331.289 393.287 327.826 390.256C306.005 371.12 281.327 362.115 256.996 362.634C232.664 363.154 208.593 373.285 187.898 392.421C184.434 395.625 181.057 399.002 177.94 402.638C176.295 401.772 174.65 400.906 173.005 400.041L173.697 399.261C177.074 395.365 180.624 391.728 184.175 388.438C205.822 368.436 231.192 357.785 256.909 357.179C282.54 356.573 308.516 366.098 331.376 386.1C335.186 389.477 338.822 393.027 342.286 396.75L342.979 397.53ZM333.367 402.898C331.982 403.591 330.683 404.283 329.298 404.976C326.96 402.552 324.449 400.214 322.024 397.962C300.81 379 278.21 369.908 256.043 370.254C233.877 370.6 212.056 380.472 192.574 399.521C190.409 401.599 188.244 403.937 185.993 406.448C184.608 405.842 183.222 405.236 181.837 404.457L182.443 403.764C184.694 401.253 187.119 398.742 189.63 396.404C209.978 376.575 232.751 366.358 256.043 366.011C279.336 365.665 302.975 375.103 325.055 394.759C327.652 397.097 330.337 399.694 333.021 402.465L333.367 402.898ZM354.755 389.823C345.749 396.144 336.311 401.772 326.18 406.362C282.54 362.548 231.712 361.595 188.677 407.66C181.317 404.37 174.217 400.733 167.376 396.49L161.488 374.064C167.723 367.483 174.044 361.682 181.057 356.573L188.85 365.405L203.57 355.62L199.674 344.97C208.073 340.554 215.693 337.697 224.612 335.272L228.508 345.749L247.644 342.372L247.558 331.202C256.217 330.423 264.962 330.683 273.534 331.722L273.361 342.372L292.584 346.875L297.086 336.744C306.092 339.515 313.712 342.979 322.111 347.741L317.781 357.699L332.328 367.483L339.861 359.69C346.269 364.712 352.33 370.514 357.958 376.835L354.755 389.823Z" fill="#D62328"/>
<path d="M255.524 107.543C256.996 109.015 259.42 108.756 260.806 110.574C262.191 110.228 264.356 110.054 265.828 109.881C266.088 111.267 267.733 111.7 268.772 112.306C270.504 111.526 271.976 111.613 273.881 111.267C274.4 111.7 274.4 112.739 273.881 113.172C273.448 113.605 272.668 113.605 272.582 114.297C272.495 114.644 272.842 114.903 272.928 115.163C272.062 116.202 270.937 116.808 271.11 118.367C273.015 120.359 272.755 122.61 272.755 125.034C273.707 125.9 274.92 123.995 275.786 125.381C276.825 125.034 277.344 125.9 278.037 126.247C278.037 126.593 277.431 126.853 277.691 127.286C279.509 127.892 280.721 129.797 282.886 129.624C283.925 129.97 283.059 131.529 284.358 131.702C285.397 131.009 286.523 132.308 287.389 131.182C288.774 131.529 291.112 130.489 292.237 131.875C291.545 131.875 290.506 132.394 290.852 133.087C290.679 134.213 289.553 133.26 289.034 133.607C289.034 136.637 283.232 131.961 285.31 136.291L286.782 137.33C286.263 137.85 285.57 137.85 284.704 137.85C283.925 138.975 283.752 140.187 282.28 140.707C280.808 138.889 278.383 141.14 276.825 139.495C275.526 139.754 272.928 138.715 272.582 140.707C273.881 141.659 273.967 143.305 274.66 144.603C273.967 144.43 273.188 144.43 272.409 144.43C270.504 145.036 273.101 147.028 270.85 147.288C271.11 148.067 269.984 149.452 271.37 149.885C270.417 150.405 271.543 151.963 270.071 152.223C267.386 152.31 266.261 155.081 264.269 156.293C263.836 155.947 263.403 155.947 262.797 155.947C261.239 158.025 260.806 160.796 258.295 162.268C257.689 165.558 259.074 169.801 255.697 171.792C254.398 174.996 259.68 174.044 258.295 177.074C259.68 179.152 261.412 181.404 263.577 182.876C264.096 183.222 264.009 184.694 265.222 184.088C266.694 184.608 266.867 186.512 268.772 185.993C268.079 186.945 269.118 187.984 269.984 188.071C269.118 188.591 268.599 189.716 268.772 190.755L269.205 192.141C272.495 195.171 275.266 199.068 279.336 201.666C279.336 202.878 281.76 203.484 280.635 205.042C282.193 205.649 283.579 207.121 284.704 207.986H285.31C286.003 209.199 287.562 209.718 288.687 210.584C289.553 210.931 290.333 211.623 290.765 212.576C290.333 214.394 292.67 214.567 293.969 214.134C294.056 213.875 294.489 214.048 294.662 213.961C295.614 215 295.614 216.559 297.086 217.078C297.779 218.117 297.866 219.33 299.165 220.109C300.55 222.62 301.589 224.958 303.667 227.123L304.187 226.949C304.793 227.729 304.273 230.067 306.092 229.287C306.698 228.681 306.958 230.067 307.737 229.807L306.525 231.625C308.863 235.089 309.642 239.591 310.335 243.921C311.2 244.527 312.413 245.826 310.854 246.519C310.854 248.164 312.499 249.203 312.759 250.761C310.854 251.281 312.326 253.359 312.24 254.658C313.019 255.784 313.971 257.429 312.066 258.208C315.184 258.814 312.066 262.711 314.664 263.663C315.184 264.096 315.53 264.962 315.616 265.828C313.019 266.78 312.24 269.378 312.066 271.37C312.24 271.716 312.586 271.889 312.413 272.322H311.46C311.46 272.842 311.807 273.707 312.24 274.314C311.46 274.66 311.027 275.699 311.46 276.565C312.846 277.604 312.413 279.249 312.759 280.635C311.893 280.202 310.941 281.327 310.594 281.847C310.508 283.146 312.499 282.453 312.24 283.579C311.114 284.271 310.768 286.782 309.209 285.224C309.469 288.341 305.832 289.38 304.1 291.545C301.849 291.285 301.416 294.575 298.991 293.883C298.299 296.827 294.662 293.796 294.142 297.086C293.883 299.684 290.592 298.558 289.293 300.03C286.436 299.944 285.051 302.974 282.28 302.974C281.068 304.273 278.989 305.572 279.682 307.391L280.028 308.083C279.596 308.343 278.816 307.564 278.21 307.391C278.556 305.486 279.596 303.148 277.604 301.589C277.691 300.81 277.604 299.857 276.651 299.684C275.872 299.511 275.093 299.857 274.833 300.55C275.353 301.935 274.314 303.148 274.054 304.447C272.668 304.966 270.763 304.187 269.551 305.139C270.85 306.611 272.409 306.438 273.275 307.91C273.188 309.382 272.062 309.728 270.85 309.469C269.984 307.91 267.386 307.65 266.174 306.525C264.789 308.256 269.291 308.516 270.85 310.508C272.755 312.759 271.716 314.404 271.11 312.932C269.378 312.586 267.04 308.516 264.875 309.295C265.395 311.2 265.135 309.555 266.434 311.027C267.819 312.586 270.157 313.365 270.677 315.097C269.898 316.136 267.993 316.742 266.78 316.482C264.529 314.491 262.797 310.248 259.42 309.555C258.814 309.902 259.074 310.161 259.247 310.594C261.152 313.192 265.395 315.01 264.875 318.301C259.94 320.725 251.627 320.639 250.848 327.652C248.337 327.566 246.432 333.454 244.7 329.211C245.047 327.912 244.007 327.739 243.921 327.306C245.306 325.141 242.103 323.929 244.44 322.197C244.96 317.954 244.181 313.105 247.991 310.075C247.904 309.122 246.692 308.343 245.912 307.737C243.748 308.43 242.709 304.36 240.804 306.265C240.631 304.446 237.946 304.62 237.86 302.628C239.591 302.455 241.756 303.84 242.882 301.849C245.306 302.542 246.605 299.598 248.164 298.299C248.424 297.346 246.519 296.48 247.991 295.614C249.203 295.528 249.809 297.779 251.194 296.48C251.541 297.173 252.147 297 252.666 297.26C253.792 296.307 253.272 294.749 255.091 294.662C256.39 294.835 258.208 294.056 259.074 295.355C259.074 296.221 258.814 297.346 260.026 297.693C261.498 296.567 265.395 298.732 264.183 295.181C264.875 295.268 265.482 294.835 265.914 294.316C266.174 293.363 265.568 292.67 264.789 292.064C264.096 292.151 263.577 292.584 262.711 292.411C263.317 289.813 257.862 290.679 260.979 288.341C262.105 286.696 258.987 286.609 260.026 284.964C262.105 284.704 263.923 283.405 266.001 283.232C266.521 283.925 267.646 283.925 268.685 283.925C269.032 282.713 270.157 281.847 271.196 281.068C272.495 281.327 271.629 279.249 273.015 280.202C274.054 280.202 275.179 279.249 276.392 279.336C277.517 278.903 279.336 278.903 279.422 277.344C279.942 276.392 280.548 275.353 281.674 274.747C283.059 274.487 283.752 275.872 285.051 275.612C285.397 276.219 286.263 276.045 286.696 275.786C287.908 274.833 287.648 273.101 287.648 271.976C287.215 270.59 287.908 268.252 286.349 267.04C286.09 264.616 286.782 262.537 287.648 260.546C289.813 259.074 287.475 257.169 288.254 255.091C285.743 253.359 286.09 250.155 285.051 247.731L285.224 242.795C287.129 242.709 286.436 240.717 287.129 239.765C285.397 237.86 289.813 235.089 286.176 233.703C288.341 233.963 288.687 231.539 289.986 230.5C290.506 228.075 286.782 228.248 286.956 225.997C286.609 225.218 285.657 225.91 285.051 225.477C284.444 224.785 283.752 224.352 282.972 224.005C282.626 223.399 283.665 222.36 282.799 221.754C281.5 222.274 281.327 220.888 280.894 220.369C282.107 218.55 285.397 221.927 286.176 218.724C286.003 218.117 286.523 217.338 285.743 216.992C285.137 216.992 284.271 217.771 283.925 216.992C282.886 216.386 281.414 216.299 280.894 214.914C280.894 214.567 280.981 214.134 280.548 213.875C279.682 213.961 278.903 214.567 278.037 214.048C276.565 213.009 277.171 211.19 275.959 210.151L273.448 211.363C273.361 209.459 271.37 208.419 271.629 206.428C271.023 205.129 270.85 203.57 269.378 202.531C270.157 198.548 264.875 199.154 263.577 196.384C262.191 195.345 261.325 192.92 259.247 192.314C255.264 191.535 257.689 187.205 255.091 185.3C253.619 184.001 250.588 184.521 250.415 182.183C249.896 181.057 248.25 181.404 248.337 180.018C249.463 179.499 250.242 178.2 249.809 177.074C249.203 175.775 247.558 175.949 246.432 176.208C245.047 176.641 244.007 174.91 242.535 174.996C241.063 173.351 238.466 173.351 237.254 171.1C234.223 170.061 231.625 167.723 228.248 167.376C229.72 166.424 231.712 165.385 232.751 163.913L231.625 162.354C232.838 160.363 235.349 162.527 236.907 161.055C238.206 161.748 239.418 163.133 241.15 162.354C242.189 161.402 243.575 160.709 244.44 159.497C241.496 156.899 247.384 157.505 246.432 154.908C245.306 153.176 241.496 153.436 242.622 150.665C241.843 149.972 240.544 150.578 240.024 149.626C239.418 149.539 238.639 149.712 238.552 150.318C237.773 149.885 237.167 149.106 236.907 148.327C239.159 149.279 239.678 147.028 241.15 146.075C240.717 144.084 238.119 145.383 237.254 143.824C234.31 143.997 234.223 139.148 231.019 140.967C229.98 142.092 227.642 141.486 227.469 143.478C226.603 144.69 225.304 144.777 224.265 145.383C223.14 143.131 220.802 143.218 218.464 143.305C218.55 141.919 216.992 141.053 216.212 139.928C215.693 140.101 214.827 139.668 214.481 140.274C214.481 138.629 213.182 137.157 212.489 135.685C213.788 135.945 213.528 134.213 214.307 133.607L213.442 132.827C215.087 131.875 213.095 129.883 215.087 128.844C214.827 128.238 214.307 128.584 213.788 128.411C213.268 127.805 213.268 126.766 212.316 126.68C211.19 127.632 212.143 129.364 210.757 130.143C209.372 129.537 209.199 127.805 209.112 126.333C208.506 124.515 205.562 124.082 205.735 122.09C204.61 120.099 202.098 120.445 201.406 118.454C202.705 118.021 203.657 120.185 204.61 118.454C204.61 117.068 204.35 116.029 205.908 115.596C206.428 115.769 206.774 115.25 206.861 114.903V113.258C208.333 115.683 212.662 113.258 212.835 116.808C213.875 117.588 214.74 118.454 215.953 118.54C216.472 118.28 216.559 117.328 217.338 117.674C218.724 116.549 219.763 114.99 220.888 114.124C221.235 113.778 221.408 113.518 221.408 112.999C222.274 114.124 222.707 115.856 224.352 115.943C224.958 115.943 225.477 115.423 225.651 114.903V113.518C226.43 115.51 228.768 115.51 229.98 117.415C232.664 117.068 231.885 114.124 233.444 112.652C234.916 112.306 235.868 114.903 237.167 113.172C239.158 113.691 240.284 111.526 242.189 112.479C244.094 113.431 244.354 111.007 245.393 110.228C244.873 108.842 246.432 108.409 245.912 107.024C247.817 105.898 250.415 105.812 251.714 103.647C253.446 104.426 255.351 105.898 255.524 107.543Z" stroke="white" stroke-width="0.7934" stroke-miterlimit="2.6131"/>
<path fill-rule="evenodd" clip-rule="evenodd" d="M255.524 107.543C256.996 109.015 259.42 108.756 260.806 110.574C262.191 110.228 264.356 110.054 265.828 109.881C266.088 111.267 267.733 111.7 268.772 112.306C270.504 111.526 271.976 111.613 273.881 111.267C274.4 111.7 274.4 112.739 273.881 113.172C273.448 113.605 272.668 113.605 272.582 114.297C272.495 114.644 272.842 114.903 272.928 115.163C272.062 116.202 270.937 116.808 271.11 118.367C273.015 120.359 272.755 122.61 272.755 125.034C273.707 125.9 274.92 123.995 275.786 125.381C276.825 125.034 277.344 125.9 278.037 126.247C278.037 126.593 277.431 126.853 277.691 127.286C279.509 127.892 280.721 129.797 282.886 129.624C283.925 129.97 283.059 131.529 284.358 131.702C285.397 131.009 286.523 132.308 287.389 131.182C288.774 131.529 291.112 130.489 292.237 131.875C291.545 131.875 290.506 132.394 290.852 133.087C290.679 134.213 289.553 133.26 289.034 133.607C289.034 136.637 283.232 131.961 285.31 136.291L286.782 137.33C286.263 137.85 285.57 137.85 284.704 137.85C283.925 138.975 283.752 140.187 282.28 140.707C280.808 138.889 278.383 141.14 276.825 139.495C275.526 139.754 272.928 138.715 272.582 140.707C273.881 141.659 273.967 143.305 274.66 144.603C273.967 144.43 273.188 144.43 272.409 144.43C270.504 145.036 273.101 147.028 270.85 147.288C271.11 148.067 269.984 149.452 271.37 149.885C270.417 150.405 271.543 151.963 270.071 152.223C267.386 152.31 266.261 155.081 264.269 156.293C263.836 155.947 263.403 155.947 262.797 155.947C261.239 158.025 260.806 160.796 258.295 162.268C257.689 165.558 259.074 169.801 255.697 171.792C254.398 174.996 259.68 174.044 258.295 177.074C259.68 179.152 261.412 181.404 263.577 182.876C264.096 183.222 264.009 184.694 265.222 184.088C266.694 184.608 266.867 186.512 268.772 185.993C268.079 186.945 269.118 187.984 269.984 188.071C269.118 188.591 268.599 189.716 268.772 190.755L269.205 192.141C272.495 195.171 275.266 199.068 279.336 201.666C279.336 202.878 281.76 203.484 280.635 205.042C282.193 205.649 283.579 207.121 284.704 207.986H285.31C286.003 209.199 287.562 209.718 288.687 210.584C289.553 210.931 290.333 211.623 290.765 212.576C290.333 214.394 292.67 214.567 293.969 214.134C294.056 213.875 294.489 214.048 294.662 213.961C295.614 215 295.614 216.559 297.086 217.078C297.779 218.117 297.866 219.33 299.165 220.109C300.55 222.62 301.589 224.958 303.667 227.123L304.187 226.949C304.793 227.729 304.273 230.067 306.092 229.287C306.698 228.681 306.958 230.067 307.737 229.807L306.525 231.625C308.863 235.089 309.642 239.591 310.335 243.921C311.2 244.527 312.413 245.826 310.854 246.519C310.854 248.164 312.499 249.203 312.759 250.761C310.854 251.281 312.326 253.359 312.24 254.658C313.019 255.784 313.971 257.429 312.066 258.208C315.184 258.814 312.066 262.711 314.664 263.663C315.184 264.096 315.53 264.962 315.616 265.828C313.019 266.78 312.24 269.378 312.066 271.37C312.24 271.716 312.586 271.889 312.413 272.322H311.46C311.46 272.842 311.807 273.707 312.24 274.314C311.46 274.66 311.027 275.699 311.46 276.565C312.846 277.604 312.413 279.249 312.759 280.635C311.893 280.202 310.941 281.327 310.594 281.847C310.508 283.146 312.499 282.453 312.24 283.579C311.114 284.271 310.768 286.782 309.209 285.224C309.469 288.341 305.832 289.38 304.1 291.545C301.849 291.285 301.416 294.575 298.991 293.883C298.299 296.827 294.662 293.796 294.142 297.086C293.883 299.684 290.592 298.558 289.293 300.03C286.436 299.944 285.051 302.974 282.28 302.974C281.068 304.273 278.989 305.572 279.682 307.391L280.028 308.083C279.596 308.343 278.816 307.564 278.21 307.391C278.556 305.486 279.596 303.148 277.604 301.589C277.691 300.81 277.604 299.857 276.651 299.684C275.872 299.511 275.093 299.857 274.833 300.55C275.353 301.935 274.314 303.148 274.054 304.447C272.668 304.966 270.763 304.187 269.551 305.139C270.85 306.611 272.409 306.438 273.275 307.91C273.188 309.382 272.062 309.728 270.85 309.469C269.984 307.91 267.386 307.65 266.174 306.525C264.789 308.256 269.291 308.516 270.85 310.508C272.755 312.759 271.716 314.404 271.11 312.932C269.378 312.586 267.04 308.516 264.875 309.295C265.395 311.2 265.135 309.555 266.434 311.027C267.819 312.586 270.157 313.365 270.677 315.097C269.898 316.136 267.993 316.742 266.78 316.482C264.529 314.491 262.797 310.248 259.42 309.555C258.814 309.902 259.074 310.161 259.247 310.594C261.152 313.192 265.395 315.01 264.875 318.301C259.94 320.725 251.627 320.639 250.848 327.652C248.337 327.566 246.432 333.454 244.7 329.211C245.047 327.912 244.007 327.739 243.921 327.306C245.306 325.141 242.103 323.929 244.44 322.197C244.96 317.954 244.181 313.105 247.991 310.075C247.904 309.122 246.692 308.343 245.912 307.737C243.748 308.43 242.709 304.36 240.804 306.265C240.631 304.446 237.946 304.62 237.86 302.628C239.591 302.455 241.756 303.84 242.882 301.849C245.306 302.542 246.605 299.598 248.164 298.299C248.424 297.346 246.519 296.48 247.991 295.614C249.203 295.528 249.809 297.779 251.194 296.48C251.541 297.173 252.147 297 252.666 297.26C253.792 296.307 253.272 294.749 255.091 294.662C256.39 294.835 258.208 294.056 259.074 295.355C259.074 296.221 258.814 297.346 260.026 297.693C261.498 296.567 265.395 298.732 264.183 295.181C264.875 295.268 265.482 294.835 265.914 294.316C266.174 293.363 265.568 292.67 264.789 292.064C264.096 292.151 263.577 292.584 262.711 292.411C263.317 289.813 257.862 290.679 260.979 288.341C262.105 286.696 258.987 286.609 260.026 284.964C262.105 284.704 263.923 283.405 266.001 283.232C266.521 283.925 267.646 283.925 268.685 283.925C269.032 282.713 270.157 281.847 271.196 281.068C272.495 281.327 271.629 279.249 273.015 280.202C274.054 280.202 275.179 279.249 276.392 279.336C277.517 278.903 279.336 278.903 279.422 277.344C279.942 276.392 280.548 275.353 281.674 274.747C283.059 274.487 283.752 275.872 285.051 275.612C285.397 276.219 286.263 276.045 286.696 275.786C287.908 274.833 287.648 273.101 287.648 271.976C287.215 270.59 287.908 268.252 286.349 267.04C286.09 264.616 286.782 262.537 287.648 260.546C289.813 259.074 287.475 257.169 288.254 255.091C285.743 253.359 286.09 250.155 285.051 247.731L285.224 242.795C287.129 242.709 286.436 240.717 287.129 239.765C285.397 237.86 289.813 235.089 286.176 233.703C288.341 233.963 288.687 231.539 289.986 230.5C290.506 228.075 286.782 228.248 286.956 225.997C286.609 225.218 285.657 225.91 285.051 225.477C284.444 224.785 283.752 224.352 282.972 224.005C282.626 223.399 283.665 222.36 282.799 221.754C281.5 222.274 281.327 220.888 280.894 220.369C282.107 218.55 285.397 221.927 286.176 218.724C286.003 218.117 286.523 217.338 285.743 216.992C285.137 216.992 284.271 217.771 283.925 216.992C282.886 216.386 281.414 216.299 280.894 214.914C280.894 214.567 280.981 214.134 280.548 213.875C279.682 213.961 278.903 214.567 278.037 214.048C276.565 213.009 277.171 211.19 275.959 210.151L273.448 211.363C273.361 209.459 271.37 208.419 271.629 206.428C271.023 205.129 270.85 203.57 269.378 202.531C270.157 198.548 264.875 199.154 263.577 196.384C262.191 195.345 261.325 192.92 259.247 192.314C255.264 191.535 257.689 187.205 255.091 185.3C253.619 184.001 250.588 184.521 250.415 182.183C249.896 181.057 248.25 181.404 248.337 180.018C249.463 179.499 250.242 178.2 249.809 177.074C249.203 175.775 247.558 175.949 246.432 176.208C245.047 176.641 244.007 174.91 242.535 174.996C241.063 173.351 238.466 173.351 237.254 171.1C234.223 170.061 231.625 167.723 228.248 167.376C229.72 166.424 231.712 165.385 232.751 163.913L231.625 162.354C232.838 160.363 235.349 162.527 236.907 161.055C238.206 161.748 239.418 163.133 241.15 162.354C242.189 161.402 243.575 160.709 244.44 159.497C241.496 156.899 247.384 157.505 246.432 154.908C245.306 153.176 241.496 153.436 242.622 150.665C241.843 149.972 240.544 150.578 240.024 149.626C239.418 149.539 238.639 149.712 238.552 150.318C237.773 149.885 237.167 149.106 236.907 148.327C239.159 149.279 239.678 147.028 241.15 146.075C240.717 144.084 238.119 145.383 237.254 143.824C234.31 143.997 234.223 139.148 231.019 140.967C229.98 142.092 227.642 141.486 227.469 143.478C226.603 144.69 225.304 144.777 224.265 145.383C223.14 143.131 220.802 143.218 218.464 143.305C218.55 141.919 216.992 141.053 216.212 139.928C215.693 140.101 214.827 139.668 214.481 140.274C214.481 138.629 213.182 137.157 212.489 135.685C213.788 135.945 213.528 134.213 214.307 133.607L213.442 132.827C215.087 131.875 213.095 129.883 215.087 128.844C214.827 128.238 214.307 128.584 213.788 128.411C213.268 127.805 213.268 126.766 212.316 126.68C211.19 127.632 212.143 129.364 210.757 130.143C209.372 129.537 209.199 127.805 209.112 126.333C208.506 124.515 205.562 124.082 205.735 122.09C204.61 120.099 202.098 120.445 201.406 118.454C202.705 118.021 203.657 120.185 204.61 118.454C204.61 117.068 204.35 116.029 205.908 115.596C206.428 115.769 206.774 115.25 206.861 114.903V113.258C208.333 115.683 212.662 113.258 212.835 116.808C213.875 117.588 214.74 118.454 215.953 118.54C216.472 118.28 216.559 117.328 217.338 117.674C218.724 116.549 219.763 114.99 220.888 114.124C221.235 113.778 221.408 113.518 221.408 112.999C222.274 114.124 222.707 115.856 224.352 115.943C224.958 115.943 225.477 115.423 225.651 114.903V113.518C226.43 115.51 228.768 115.51 229.98 117.415C232.664 117.068 231.885 114.124 233.444 112.652C234.916 112.306 235.868 114.903 237.167 113.172C239.158 113.691 240.284 111.526 242.189 112.479C244.094 113.431 244.354 111.007 245.393 110.228C244.873 108.842 246.432 108.409 245.912 107.024C247.817 105.898 250.415 105.812 251.714 103.647C253.446 104.426 255.351 105.898 255.524 107.543Z" fill="#D62328"/>
<path fill-rule="evenodd" clip-rule="evenodd" d="M258.9 122.696L261.758 131.615H271.109L263.576 137.157L266.434 145.989L258.9 140.534L251.367 145.989L254.225 137.157L246.691 131.615H255.956L258.9 122.696Z" fill="white"/>
<path d="M178.46 469.312C201.233 477.105 225.651 481.348 251.021 481.348C280.115 481.348 307.91 475.806 333.367 465.675L333.281 465.588L320.812 428.788C299.251 437.534 275.613 442.383 250.935 442.383C230.846 442.383 211.623 439.179 193.44 433.291L178.46 469.312Z" fill="#085CA7"/>
<path fill-rule="evenodd" clip-rule="evenodd" d="M189.023 466.887L196.73 468.359L200.54 448.963L221.148 473.122L229.287 474.767L234.483 448.184L227.036 446.712L224.352 460.306L209.978 443.335L194.305 440.304L189.023 466.887ZM241.669 474.594H275.266V470.957H256.39V462.644H273.448V458.921H256.39V451.128H274.487V447.491H241.669V474.594ZM282.106 446.106L285.224 463.077C285.57 464.723 286.09 466.021 286.869 466.974C287.908 468.273 289.293 469.225 291.371 469.745C293.276 470.264 295.701 470.524 298.905 470.437C301.849 470.437 304.706 470.091 307.564 469.571C320.898 467.06 326.873 462.385 325.574 455.544L322.457 438.573L315.097 439.958L318.041 455.804C318.56 458.661 318.041 460.739 316.655 462.038C315.357 463.164 313.192 464.03 310.161 464.549C306.351 465.242 303.667 464.982 301.935 463.77C300.81 462.904 300.03 461.432 299.597 459.181L296.653 443.335L282.106 446.106Z" fill="white"/>
<path fill-rule="evenodd" clip-rule="evenodd" d="M341.073 445.067C345.489 443.248 350.165 442.556 355.534 443.422C360.556 444.201 364.019 446.019 365.664 449.743C363.153 452.773 358.564 454.072 352.157 452.773C347.308 451.821 343.844 448.704 341.073 445.067Z" fill="#F8B518"/>
<path fill-rule="evenodd" clip-rule="evenodd" d="M354.408 439.785C358.564 437.707 362.981 436.754 368.262 437.187C373.198 437.534 376.575 439.179 378.48 442.729C376.229 445.846 371.899 447.318 365.578 446.452C360.816 445.76 357.352 442.989 354.408 439.785Z" fill="#F8B518"/>
<path fill-rule="evenodd" clip-rule="evenodd" d="M367.224 433.291C371.12 431.126 375.363 429.914 380.472 429.914C385.234 429.914 388.698 431.299 390.689 434.59C388.784 437.707 384.715 439.439 378.48 439.092C373.804 438.746 370.254 436.235 367.224 433.291Z" fill="#F8B518"/>
<path fill-rule="evenodd" clip-rule="evenodd" d="M379.346 425.931C382.982 423.506 386.966 421.948 391.988 421.601C396.663 421.341 400.127 422.381 402.292 425.411C400.647 428.615 396.75 430.606 390.689 430.693C386.186 430.693 382.549 428.528 379.346 425.931Z" fill="#F8B518"/>
<path fill-rule="evenodd" clip-rule="evenodd" d="M390.862 417.705C394.239 415.02 398.049 413.202 402.898 412.509C407.487 411.903 410.864 412.596 413.289 415.367C411.903 418.657 408.267 420.909 402.379 421.428C397.963 421.861 394.239 420.043 390.862 417.705Z" fill="#F8B518"/>
<path fill-rule="evenodd" clip-rule="evenodd" d="M401.772 408.699C404.89 405.755 408.526 403.677 413.202 402.725C417.705 401.686 421.082 402.205 423.679 404.716C422.554 408.093 419.177 410.518 413.375 411.557C409.046 412.336 405.236 410.778 401.772 408.699Z" fill="#F8B518"/>
<path fill-rule="evenodd" clip-rule="evenodd" d="M411.903 399.088C414.761 395.971 418.138 393.633 422.813 392.161C427.056 390.862 430.52 391.035 433.204 393.373C432.338 396.75 429.221 399.434 423.593 400.906C419.437 402.032 415.54 400.82 411.903 399.088Z" fill="#F8B518"/>
<path fill-rule="evenodd" clip-rule="evenodd" d="M421.428 388.784C423.939 385.407 427.143 382.809 431.646 381.078C435.802 379.432 439.266 379.259 442.21 381.337C441.69 384.801 438.746 387.745 433.204 389.737C429.048 391.122 425.152 390.256 421.428 388.784Z" fill="#F8B518"/>
<path fill-rule="evenodd" clip-rule="evenodd" d="M430.087 377.96C432.338 374.324 435.369 371.466 439.698 369.302C443.768 367.223 447.231 366.877 450.349 368.695C450.089 372.246 447.405 375.449 442.123 377.787C437.966 379.606 433.983 379.086 430.087 377.96Z" fill="#F8B518"/>
<path fill-rule="evenodd" clip-rule="evenodd" d="M437.966 366.531C439.958 362.721 442.815 359.517 446.972 357.006C450.955 354.581 454.418 353.975 457.709 355.534C457.709 359.084 455.284 362.634 450.089 365.405C446.106 367.57 441.949 367.397 437.966 366.531Z" fill="#F8B518"/>
<path fill-rule="evenodd" clip-rule="evenodd" d="M444.894 354.581C446.625 350.598 449.31 347.135 453.379 344.191C457.189 341.507 460.653 340.467 464.116 341.939C464.463 345.576 462.211 349.3 457.103 352.59C453.293 355.014 449.05 355.188 444.894 354.581Z" fill="#F8B518"/>
<path fill-rule="evenodd" clip-rule="evenodd" d="M450.955 342.199C452.427 337.956 454.851 334.233 458.834 330.943C462.558 327.912 465.934 326.7 469.658 327.739C470.177 331.462 468.272 335.445 463.25 339.169C459.527 342.026 455.284 342.546 450.955 342.199Z" fill="#F8B518"/>
<path fill-rule="evenodd" clip-rule="evenodd" d="M456.064 329.471C457.276 325.055 459.528 321.072 463.251 317.435C466.888 313.971 470.265 312.499 474.161 313.365C475.027 317.088 473.209 321.331 468.446 325.574C464.809 328.691 460.48 329.471 456.064 329.471Z" fill="#F8B518"/>
<path fill-rule="evenodd" clip-rule="evenodd" d="M460.046 316.396C460.999 311.72 462.99 307.477 466.714 303.407C470.177 299.597 473.641 297.779 477.624 298.558C478.75 302.282 477.278 306.784 472.602 311.46C469.052 315.01 464.549 316.049 460.046 316.396Z" fill="#F8B518"/>
<path fill-rule="evenodd" clip-rule="evenodd" d="M342.805 443.422C342.719 438.659 343.844 434.07 346.615 429.394C349.126 424.978 352.157 422.467 356.227 422.294C358.132 425.757 357.699 430.433 354.062 435.975C351.378 440.131 347.221 442.123 342.805 443.422Z" fill="#F8B518"/>
<path fill-rule="evenodd" clip-rule="evenodd" d="M355.361 437.967C355.014 433.377 355.707 428.875 358.045 424.112C360.296 419.696 362.981 417.099 366.877 416.579C368.955 419.783 368.782 424.372 365.665 430C363.414 434.243 359.517 436.495 355.361 437.967Z" fill="#F8B518"/>
<path fill-rule="evenodd" clip-rule="evenodd" d="M367.223 431.299C366.531 426.883 366.964 422.467 368.869 417.705C370.687 413.202 373.198 410.518 377.008 409.825C379.259 412.769 379.346 417.185 376.748 422.9C374.67 427.056 371.12 429.481 367.223 431.299Z" fill="#F8B518"/>
<path fill-rule="evenodd" clip-rule="evenodd" d="M378.393 423.506C377.441 419.177 377.527 414.934 378.999 410.171C380.471 405.669 382.723 402.898 386.273 401.946C388.697 404.716 389.13 408.959 386.966 414.674C385.407 418.917 382.03 421.515 378.393 423.506Z" fill="#F8B518"/>
<path fill-rule="evenodd" clip-rule="evenodd" d="M388.958 415.107C387.659 410.951 387.399 406.708 388.525 401.946C389.564 397.529 391.555 394.585 395.019 393.373C397.53 395.884 398.309 400.041 396.664 405.755C395.452 410.085 392.421 412.856 388.958 415.107Z" fill="#F8B518"/>
<path fill-rule="evenodd" clip-rule="evenodd" d="M398.915 406.102C397.27 402.205 396.75 398.049 397.529 393.2C398.222 388.697 399.867 385.667 403.244 384.195C406.015 386.446 407.054 390.516 405.928 396.317C404.889 400.647 402.119 403.591 398.915 406.102Z" fill="#F8B518"/>
<path fill-rule="evenodd" clip-rule="evenodd" d="M408.353 396.577C406.448 392.767 405.582 388.784 405.929 384.022C406.275 379.432 407.661 376.315 410.864 374.583C413.722 376.575 415.107 380.558 414.414 386.36C413.895 390.689 411.384 393.806 408.353 396.577Z" fill="#F8B518"/>
<path fill-rule="evenodd" clip-rule="evenodd" d="M417.272 386.619C415.107 383.069 413.895 378.999 413.808 374.237C413.721 369.734 414.934 366.444 417.964 364.453C420.908 366.271 422.727 370.081 422.467 375.882C422.294 380.212 420.042 383.589 417.272 386.619Z" fill="#F8B518"/>
<path fill-rule="evenodd" clip-rule="evenodd" d="M425.671 376.229C423.16 372.852 421.601 368.955 421.168 364.106C420.735 359.604 421.601 356.313 424.545 354.062C427.663 355.534 429.741 359.257 430 365.145C430.087 369.475 428.182 373.025 425.671 376.229Z" fill="#F8B518"/>
<path fill-rule="evenodd" clip-rule="evenodd" d="M433.464 365.405C430.606 362.115 428.788 358.391 427.922 353.542C427.143 348.953 427.749 345.576 430.433 343.065C433.724 344.364 436.062 347.914 436.841 353.802C437.36 358.218 435.629 361.941 433.464 365.405Z" fill="#F8B518"/>
<path fill-rule="evenodd" clip-rule="evenodd" d="M440.478 354.235C437.361 351.118 435.196 347.395 433.897 342.546C432.685 338.043 433.118 334.493 435.715 331.722C439.179 332.761 441.863 336.225 443.075 342.113C443.941 346.615 442.469 350.598 440.478 354.235Z" fill="#F8B518"/>
<path fill-rule="evenodd" clip-rule="evenodd" d="M446.712 342.632C443.248 339.688 440.737 336.138 439.092 331.202C437.533 326.7 437.707 322.976 440.131 320.032C443.768 320.812 446.712 324.102 448.444 330.077C449.656 334.579 448.53 338.736 446.712 342.632Z" fill="#F8B518"/>
<path fill-rule="evenodd" clip-rule="evenodd" d="M451.907 330.596C448.27 327.826 445.326 324.362 443.248 319.426C441.343 314.924 441.257 311.114 443.508 307.823C447.318 308.43 450.608 311.633 452.686 317.608C454.418 322.111 453.466 326.527 451.907 330.596Z" fill="#F8B518"/>
<path fill-rule="evenodd" clip-rule="evenodd" d="M455.804 318.214C451.734 315.616 448.531 312.239 446.106 307.304C443.768 302.715 443.422 298.818 445.5 295.355C449.483 295.701 453.12 298.732 455.718 304.793C457.623 309.382 457.103 313.885 455.804 318.214Z" fill="#F8B518"/>
<path fill-rule="evenodd" clip-rule="evenodd" d="M460.48 303.234C458.661 298.818 458.055 294.142 458.921 288.774C459.7 283.752 461.692 280.375 465.329 278.643C468.359 281.241 469.572 285.743 468.273 292.237C467.147 297.173 464.116 300.463 460.48 303.234Z" fill="#F8B518"/>
<path fill-rule="evenodd" clip-rule="evenodd" d="M172.139 445.067C167.723 443.248 163.047 442.556 157.678 443.422C152.57 444.201 149.193 446.019 147.547 449.743C150.058 452.773 154.648 454.072 161.142 452.687C165.904 451.821 169.281 448.704 172.139 445.067Z" fill="#F8B518"/>
<path fill-rule="evenodd" clip-rule="evenodd" d="M158.717 439.785C154.561 437.707 150.145 436.754 144.863 437.187C139.927 437.534 136.55 439.179 134.646 442.729C136.897 445.846 141.226 447.318 147.547 446.539C152.396 445.76 155.773 442.989 158.717 439.785Z" fill="#F8B518"/>
<path fill-rule="evenodd" clip-rule="evenodd" d="M145.989 433.291C142.092 431.126 137.849 429.914 132.741 429.914C127.892 429.914 124.515 431.299 122.437 434.503C124.428 437.707 128.498 439.439 134.646 439.006C139.408 438.746 142.958 436.235 145.989 433.291Z" fill="#F8B518"/>
<path fill-rule="evenodd" clip-rule="evenodd" d="M133.78 425.931C130.23 423.506 126.16 421.948 121.138 421.601C116.549 421.255 113.085 422.381 110.834 425.411C112.479 428.615 116.376 430.606 122.437 430.693C126.94 430.693 130.663 428.528 133.78 425.931Z" fill="#F8B518"/>
<path fill-rule="evenodd" clip-rule="evenodd" d="M122.263 417.705C118.973 415.02 115.163 413.202 110.228 412.509C105.638 411.903 102.261 412.596 99.8369 415.367C101.222 418.657 104.859 420.909 110.747 421.428C115.25 421.861 118.973 420.043 122.263 417.705Z" fill="#F8B518"/>
<path fill-rule="evenodd" clip-rule="evenodd" d="M111.44 408.699C108.322 405.755 104.686 403.677 100.01 402.725C95.5939 401.686 92.1304 402.205 89.5327 404.803C90.6584 408.093 94.0353 410.604 99.8368 411.643C104.166 412.336 107.976 410.778 111.44 408.699Z" fill="#F8B518"/>
<path fill-rule="evenodd" clip-rule="evenodd" d="M101.222 399.088C98.4514 395.971 94.9878 393.633 90.3986 392.161C86.0692 390.862 82.6922 391.035 79.9214 393.373C80.7873 396.75 83.9045 399.434 89.5328 400.906C93.7756 402.032 97.6721 400.82 101.222 399.088Z" fill="#F8B518"/>
<path fill-rule="evenodd" clip-rule="evenodd" d="M91.8708 388.784C89.2732 385.407 86.0694 382.809 81.5668 381.078C77.3239 379.432 73.947 379.259 71.0029 381.337C71.5225 384.801 74.4665 387.745 79.9216 389.737C84.1644 391.122 88.0609 390.256 91.8708 388.784Z" fill="#F8B518"/>
<path fill-rule="evenodd" clip-rule="evenodd" d="M83.1256 377.96C80.8743 374.324 77.8436 371.466 73.5142 369.302C69.3579 367.31 65.981 366.877 62.8638 368.695C63.1235 372.246 65.8078 375.449 71.1763 377.787C75.246 379.606 79.2291 379.086 83.1256 377.96Z" fill="#F8B518"/>
<path fill-rule="evenodd" clip-rule="evenodd" d="M75.2457 366.531C73.2541 362.721 70.3967 359.517 66.1539 357.006C62.2574 354.581 58.7938 353.975 55.5034 355.534C55.5034 359.084 57.9279 362.634 63.1232 365.405C67.1063 367.57 71.2626 367.397 75.2457 366.531Z" fill="#F8B518"/>
<path fill-rule="evenodd" clip-rule="evenodd" d="M68.2316 354.581C66.4999 350.598 63.9022 347.135 59.8325 344.191C56.0226 341.507 52.6456 340.554 49.0955 341.939C48.8357 345.576 51.0005 349.299 56.1092 352.59C59.9191 355.014 64.0754 355.188 68.2316 354.581Z" fill="#F8B518"/>
<path fill-rule="evenodd" clip-rule="evenodd" d="M62.2578 342.199C60.7858 337.956 58.3613 334.233 54.3782 330.943C50.7415 327.825 47.1913 326.7 43.6412 327.825C43.0351 331.462 45.0266 335.445 49.9622 339.169C53.6855 342.026 57.9283 342.459 62.2578 342.199Z" fill="#F8B518"/>
<path fill-rule="evenodd" clip-rule="evenodd" d="M57.1485 329.471C55.9363 325.055 53.6849 321.072 49.875 317.435C46.3249 313.971 42.8613 312.499 39.0514 313.365C38.1855 317.088 39.9173 321.331 44.6797 325.574C48.403 328.691 52.7325 329.384 57.1485 329.471Z" fill="#F8B518"/>
<path fill-rule="evenodd" clip-rule="evenodd" d="M53.166 316.396C52.2135 311.72 50.2219 307.477 46.4986 303.407C43.0351 299.684 39.6581 297.866 35.5884 298.558C34.4628 302.282 35.9348 306.784 40.6106 311.46C44.1607 315.01 48.6633 316.049 53.166 316.396Z" fill="#F8B518"/>
<path fill-rule="evenodd" clip-rule="evenodd" d="M170.407 443.422C170.493 438.659 169.368 434.07 166.684 429.394C164.172 424.978 161.142 422.467 157.072 422.294C155.167 425.757 155.687 430.433 159.237 435.975C161.921 440.131 165.991 442.123 170.407 443.422Z" fill="#F8B518"/>
<path fill-rule="evenodd" clip-rule="evenodd" d="M157.765 437.967C158.198 433.377 157.419 428.875 155.081 424.112C152.916 419.696 150.145 417.099 146.249 416.579C144.17 419.783 144.344 424.372 147.461 430C149.799 434.243 153.695 436.495 157.765 437.967Z" fill="#F8B518"/>
<path fill-rule="evenodd" clip-rule="evenodd" d="M145.989 431.299C146.682 426.883 146.249 422.467 144.344 417.705C142.525 413.202 140.101 410.518 136.204 409.825C134.04 412.769 133.866 417.185 136.551 422.9C138.542 427.056 142.092 429.481 145.989 431.299Z" fill="#F8B518"/>
<path fill-rule="evenodd" clip-rule="evenodd" d="M134.818 423.506C135.771 419.177 135.684 414.934 134.126 410.085C132.74 405.669 130.489 402.811 126.852 401.859C124.514 404.63 123.995 408.873 126.16 414.588C127.805 418.917 131.182 421.515 134.818 423.506Z" fill="#F8B518"/>
<path fill-rule="evenodd" clip-rule="evenodd" d="M124.255 415.107C125.554 410.951 125.814 406.708 124.688 401.946C123.562 397.443 121.657 394.585 118.194 393.373C115.683 395.884 114.903 400.041 116.549 405.755C117.761 410.085 120.878 412.856 124.255 415.107Z" fill="#F8B518"/>
<path fill-rule="evenodd" clip-rule="evenodd" d="M114.297 406.102C115.856 402.205 116.375 398.049 115.683 393.2C114.99 388.697 113.258 385.667 109.968 384.195C107.283 386.446 106.244 390.516 107.37 396.317C108.322 400.647 111.007 403.677 114.297 406.102Z" fill="#F8B518"/>
<path fill-rule="evenodd" clip-rule="evenodd" d="M104.859 396.577C106.764 392.767 107.63 388.784 107.283 384.022C106.937 379.432 105.552 376.315 102.348 374.583C99.4904 376.575 98.105 380.558 98.7977 386.36C99.3172 390.689 101.828 393.806 104.859 396.577Z" fill="#F8B518"/>
<path fill-rule="evenodd" clip-rule="evenodd" d="M95.8541 386.619C98.0188 383.069 99.3176 378.999 99.4042 374.237C99.4042 369.734 98.2786 366.444 95.248 364.453C92.2173 366.271 90.4856 370.081 90.7453 375.882C90.9185 380.212 93.1698 383.589 95.8541 386.619Z" fill="#F8B518"/>
<path fill-rule="evenodd" clip-rule="evenodd" d="M87.6281 376.229C90.0526 372.852 91.6978 368.955 92.0442 364.106C92.4771 359.604 91.5246 356.227 88.6672 354.062C85.55 355.534 83.4719 359.257 83.2987 365.145C83.0389 369.388 85.0305 373.025 87.6281 376.229Z" fill="#F8B518"/>
<path fill-rule="evenodd" clip-rule="evenodd" d="M79.8352 365.405C82.606 362.115 84.5976 358.391 85.3769 353.542C86.1562 348.953 85.4635 345.576 82.7792 343.065C79.4888 344.364 77.1509 347.914 76.3716 353.802C75.8521 358.218 77.4973 361.941 79.8352 365.405Z" fill="#F8B518"/>
<path fill-rule="evenodd" clip-rule="evenodd" d="M72.7348 354.235C75.852 351.118 78.0167 347.395 79.3156 342.546C80.5278 338.043 80.0949 334.493 77.4972 331.722C74.0336 332.761 71.3494 336.225 70.1371 342.113C69.2713 346.615 70.6567 350.598 72.7348 354.235Z" fill="#F8B518"/>
<path fill-rule="evenodd" clip-rule="evenodd" d="M66.5002 342.632C69.8772 339.688 72.4749 336.138 74.12 331.202C75.6786 326.7 75.5055 322.976 73.1676 320.032C69.5308 320.812 66.5868 324.102 64.855 330.077C63.5562 334.579 64.6819 338.736 66.5002 342.632Z" fill="#F8B518"/>
<path fill-rule="evenodd" clip-rule="evenodd" d="M61.3051 330.596C65.0284 327.826 67.8859 324.362 69.8774 319.426C71.7824 314.924 71.9555 311.114 69.7042 307.823C65.8943 308.43 62.6039 311.633 60.4392 317.608C58.8806 322.111 59.7465 326.527 61.3051 330.596Z" fill="#F8B518"/>
<path fill-rule="evenodd" clip-rule="evenodd" d="M57.4947 318.214C61.4778 315.616 64.6815 312.239 67.106 307.304C69.3573 302.715 69.7903 298.818 67.6256 295.355C63.6425 295.701 60.0923 298.732 57.4947 304.793C55.5031 309.382 56.1092 313.885 57.4947 318.214Z" fill="#F8B518"/>
<path fill-rule="evenodd" clip-rule="evenodd" d="M52.7329 303.234C54.5512 298.818 55.1574 294.142 54.2915 288.774C53.5122 283.665 51.6072 280.375 47.8839 278.643C44.8533 281.154 43.641 285.743 44.9399 292.237C46.0655 297.173 49.1827 300.463 52.7329 303.234Z" fill="#F8B518"/>
<path fill-rule="evenodd" clip-rule="evenodd" d="M341.16 285.57C340.554 284.791 340.814 284.098 341.333 283.405C342.632 281.933 343.585 281.327 344.104 282.28C344.018 284.098 342.892 285.051 341.16 285.57Z" fill="#D62328"/>
<path fill-rule="evenodd" clip-rule="evenodd" d="M349.559 282.799C349.473 281.674 349.992 280.721 351.464 280.115C351.984 280.028 351.897 279.942 351.464 282.28C350.945 282.539 350.512 282.886 349.559 282.799Z" fill="#D62328"/>
<path fill-rule="evenodd" clip-rule="evenodd" d="M344.191 293.709C346.875 293.623 348.607 294.575 348.607 295.961C348.434 297.606 347.048 298.385 345.143 298.385C342.892 298.645 340.9 297.779 340.9 295.961C341.074 294.489 342.719 293.796 344.191 293.709Z" fill="#D62328"/>
<path fill-rule="evenodd" clip-rule="evenodd" d="M336.398 301.416C337.177 304.1 337.004 303.667 334.32 303.494C334.406 302.628 335.445 302.022 336.398 301.416Z" fill="#D62328"/>
<path fill-rule="evenodd" clip-rule="evenodd" d="M327.479 302.541C327.479 301.416 327.046 300.896 325.314 300.983C323.323 301.156 322.976 302.282 323.236 303.148C324.448 303.667 327.479 303.667 327.479 302.541Z" fill="#D62328"/>
<path fill-rule="evenodd" clip-rule="evenodd" d="M322.024 206.255C321.418 205.475 321.765 205.216 322.284 204.61C323.41 203.657 324.362 203.917 324.709 204.436C325.055 205.822 322.717 206.861 322.024 206.255Z" fill="#D62328"/>
<path fill-rule="evenodd" clip-rule="evenodd" d="M330.25 203.917C330.163 202.705 330.596 201.752 332.068 201.233C332.588 201.059 333.021 201.752 332.068 203.311C331.722 203.657 331.289 203.917 330.25 203.917Z" fill="#D62328"/>
<path fill-rule="evenodd" clip-rule="evenodd" d="M316.482 203.57C318.561 204.09 317.002 205.649 314.318 205.216C313.279 204.696 314.924 203.311 316.482 203.57Z" fill="#D62328"/>
</svg>
